#!OML:ASF H:\ColoradoDance\Project 1\Capture day 1\Session 8\male.ASF
:FULLY-SPECIFIED
:DEGREES
16
upperback 0.065961 3.178420 0.981044
rfoot 1.731030 -41.502701
lradius 25.050301
lthumb 27.077400 36.553398
rradius 30.617701
lwrist -21.855200
rhand -17.403000 -58.566601
rhumerus -1.897910 -39.464901 10.594000
lowerneck 0.906025 13.541000 16.420500
lhand 1.553420 8.475030
ltibia 49.207901
head 5.656550 9.280210 -3.554150
rwrist 12.908200
lfingers 7.125020
rtoes -2.091160
lowerback 0.568876 2.387240 7.554900
rfingers 7.125020
lclavicle -0.000000 -0.000000
upperneck 12.007500 18.249100 -7.016730
rfemur 13.709100 -4.436470 7.063320
thorax 0.106114 1.570170 -3.217750
rclavicle -0.000000 -0.000000
rtibia 16.917101
lfoot -18.298700 17.815800
lhumerus 25.616899 47.821098 11.674300
rthumb 8.846450 -88.361198
root 14.433700 18.410900 -4.695050 -183.895004 -27.167999 -169.891998
ltoes -1.306610
lfemur -25.842400 16.675501 -0.114442
17
upperback -5.044420 0.108874 1.549730
rfoot -8.872340 -17.060301
lradius 35.112000
lthumb 11.152900 47.481602
rradius 42.543400
lwrist -13.095700
rhand -51.893200 -12.719900
rhumerus 61.240398 -44.388599 -26.927099
lowerneck 1.478620 7.071500 9.829460
lhand -15.012300 17.798000
ltibia 41.623501
head 4.686980 4.695740 -1.655160
rwrist 21.126900
lfingers 7.125020
rtoes -2.702810
lowerback 1.077370 0.046928 2.657850
rfingers 7.125020
lclavicle 0.000000 0.000000
upperneck 14.598500 8.999070 -1.352320
rfemur 0.658037 -2.456850 16.260700
thorax -5.828290 -0.090694 0.120225
rclavicle 0.000000 0.000000
rtibia 41.525002
lfoot -20.773100 2.779480
lhumerus 54.145802 46.592899 6.902940
rthumb -24.405199 -41.185600
root 10.534400 19.015499 -5.054840 -189.895004 -59.137901 -166.744003
ltoes -1.818890
lfemur -18.314600 3.211700 -12.280300
18
upperback -3.512880 -1.715070 0.980216
rfoot -7.955620 -12.172300
lradius 37.929001
lthumb 5.708600 40.135201
rradius 39.327999
lwrist -6.773650
rhand -47.162601 -13.001700
rhumerus 53.521000 -48.359001 -17.218300
lowerneck -1.359420 2.657120 3.738070
lhand -20.653799 10.232100
ltibia 39.320000
head 4.063110 1.610320 0.264016
rwrist 16.886700
lfingers 7.125020
rtoes 0.123495
lowerback 3.305890 -1.368450 1.795770
rfingers 7.125020
lclavicle 0.000000 -0.000000
upperneck 11.626600 2.907130 2.434330
rfemur -28.330900 10.028800 13.872700
thorax -5.515420 -0.916142 0.150060
rclavicle 0.000000 -0.000000
rtibia 49.312199
lfoot -22.270300 -9.860410
lhumerus 55.473099 44.020901 10.406200
rthumb -19.863600 -42.006599
root 6.899940 18.911501 -5.753970 -226.643005 -82.118401 -133.003998
ltoes 5.310460
lfemur -5.307160 -3.651590 -14.670400
19
upperback -0.996368 -4.198870 1.252730
rfoot 7.127660 -4.148180
lradius 26.918600
lthumb -5.660840 48.126499
rradius 25.946100
lwrist 10.050200
rhand -5.472360 -4.925230
rhumerus -14.541700 -30.132900 -3.199460
lowerneck -7.466730 0.339314 0.906384
lhand -32.426800 18.222099
ltibia 45.048100
head 3.687580 0.172790 1.033150
rwrist -0.566876
lfingers 7.125020
rtoes -16.435801
lowerback 5.113660 -3.189410 0.225709
rfingers 7.125020
lclavicle 0.000000 -0.000000
upperneck 7.244050 0.004118 3.606640
rfemur -43.436001 20.511400 3.690360
thorax -3.812950 -2.080210 1.513210
rclavicle 0.000000 -0.000000
rtibia 27.780600
lfoot -21.468700 -17.265301
lhumerus -2.887100 28.300600 16.120399
rthumb 20.339500 -33.880100
root 3.003660 18.122900 -6.834000 -328.348999 -79.427498 -29.305401
ltoes -17.485201
lfemur 0.341384 -10.862500 -10.386700
